<?xml version="1.0" encoding="UTF-8" standalone="no"?>
<svg
   width="392.13525"
   height="308.38254"
   viewBox="0 0 392.13526 308.38255"
   version="1.1"
   id="svg76"
   sodipodi:docname="undraw_gifts_0ceh.svg"
   inkscape:version="1.2 (dc2aedaf03, 2022-05-15)"
   xmlns:inkscape="http://www.inkscape.org/namespaces/inkscape"
   xmlns:sodipodi="http://sodipodi.sourceforge.net/DTD/sodipodi-0.dtd"
   xmlns="http://www.w3.org/2000/svg"
   xmlns:svg="http://www.w3.org/2000/svg">
  <defs
     id="defs80" />
  <sodipodi:namedview
     id="namedview78"
     pagecolor="#ffffff"
     bordercolor="#666666"
     borderopacity="1.0"
     inkscape:showpageshadow="2"
     inkscape:pageopacity="0.0"
     inkscape:pagecheckerboard="0"
     inkscape:deskcolor="#d1d1d1"
     showgrid="false"
     inkscape:zoom="1.7646972"
     inkscape:cx="49.300243"
     inkscape:cy="154.13409"
     inkscape:window-width="1920"
     inkscape:window-height="1017"
     inkscape:window-x="-8"
     inkscape:window-y="-8"
     inkscape:window-maximized="1"
     inkscape:current-layer="svg76" />
  <path
     d="m 0,307.19254 c 0,0.66003 0.30312,1.19 0.6806,1.19 h 390.7741 c 0.37744,0 0.68056,-0.52997 0.68056,-1.19 0,-0.65997 -0.30312,-1.19 -0.68056,-1.19 H 0.6806 c -0.37748,0 -0.6806,0.53003 -0.6806,1.19 z"
     fill="#3f3d56"
     id="path2"
     style="stroke-width:0.756241" />
  <g
     id="g20"
     transform="translate(-293.53478,-120.14198)">
    <path
       d="m 666.53394,201.90677 c -0.8443,-1.42365 -4.49683,0.10068 -5.16833,-1.19135 -0.66913,-1.28735 2.72449,-3.24887 4.66333,-7.7298 0.34967,-0.80807 2.55298,-5.90033 0.92188,-7.47162 -3.09174,-2.97836 -17.23962,9.31259 -22.19073,5.29041 -1.08661,-0.88269 -1.8457,-2.64484 -5.13428,-5.50583 -1.30829,-1.13815 -2.09937,-1.65204 -2.86499,-1.46085 -1.08636,0.27127 -1.17242,1.72522 -2.33734,4.58398 -1.74701,4.28729 -2.78027,4.02841 -3.79816,7.44897 -0.75562,2.53925 -0.58301,4.01553 -1.47217,4.30313 -1.25824,0.40701 -2.41638,-2.28632 -4.01099,-2.04517 -1.6272,0.24612 -2.61096,3.38205 -2.92169,5.72998 -0.58313,4.40607 1.03497,7.31348 1.93182,10.37064 0.97461,3.32236 1.55304,8.37494 -0.69769,15.52759 l -22.27716,62.76614 c 4.91809,-12.87943 19.15845,-48.18536 25.14215,-61.3053 1.72742,-3.78745 3.6347,-7.62909 7.55096,-9.14526 3.77045,-1.45978 8.94867,-0.58823 15.55029,-2.17862 0.771,-0.1857 2.91052,-0.73007 3.17981,-1.98849 0.22266,-1.04037 -1.03583,-1.62109 -0.84247,-2.59549 0.25934,-1.30701 2.73413,-1.32306 5.77533,-2.83096 2.14447,-1.06332 3.48047,-2.32785 4.62933,-3.41531 0.34637,-0.32785 5.49512,-5.26166 4.37115,-7.1568 h -6e-5 z"
       fill="#f2f2f2"
       id="path6" />
    <path
       d="m 578.88879,234.94949 c -0.94232,0.004 -1.24805,2.23611 -2.07593,2.1929 -0.82489,-0.043 -0.80847,-2.2746 -2.4483,-4.5191 -0.29572,-0.40475 -2.1593,-2.95547 -3.40112,-2.60825 -2.35382,0.65808 -0.4035,11.14828 -3.80615,12.41782 -0.7467,0.27863 -1.83069,0.14276 -4.18372,0.93134 -0.9361,0.31372 -1.41656,0.55371 -1.54364,0.98465 -0.1803,0.61145 0.50842,1.07324 1.57544,2.46979 1.60016,2.09445 1.17499,2.52692 2.56012,4.01343 1.02826,1.10352 1.80261,1.44476 1.68726,1.96414 -0.16327,0.73499 -1.81934,0.52631 -2.16107,1.37851 -0.34869,0.86966 0.90662,2.25729 1.9693,3.08725 1.99426,1.5575 3.88812,1.6022 5.6474,2.04413 1.9118,0.48026 4.55859,1.65421 7.41974,4.82266 l 24.37836,29.04382 c -4.90228,-6.12997 -18.12189,-23.30609 -22.83472,-30.0285 -1.36047,-1.94061 -2.69568,-3.98517 -2.30981,-6.34479 0.37146,-2.27176 2.29327,-4.56177 3.41748,-8.26077 0.13135,-0.43201 0.48145,-1.63916 -0.0585,-2.13443 -0.44635,-0.40945 -1.09448,0.0407 -1.51697,-0.33539 -0.56665,-0.50443 0.13953,-1.72369 0.27692,-3.6514 0.0969,-1.35931 -0.13831,-2.37988 -0.34058,-3.25754 -0.061,-0.26459 -0.99695,-4.21518 -2.25134,-4.21036 v 9e-5 h -1.8e-4 z"
       fill="#f2f2f2"
       id="path8" />
    <path
       d="m 597.68842,239.16959 -0.56775,-5.06818 0.2594,-0.38422 c 1.20038,-1.77667 1.81213,-3.51175 1.81952,-5.15872 0.001,-0.26184 -0.011,-0.52371 -0.0232,-0.79044 -0.0489,-1.05719 -0.11011,-2.37134 0.57507,-3.90329 0.38422,-0.85406 1.46344,-2.83142 3.08594,-2.5867 0.43683,0.0612 0.76721,0.26184 1.01807,0.49677 0.0367,-0.0587 0.0747,-0.11746 0.11499,-0.18109 0.50531,-0.77087 0.90546,-1.10123 1.29089,-1.41937 0.29608,-0.24472 0.60199,-0.49677 1.08167,-1.0939 0.21045,-0.26184 0.37439,-0.49188 0.5127,-0.68521 0.41974,-0.58487 0.96783,-1.28235 1.93451,-1.27011 1.03271,0.0489 1.57355,0.90302 1.93207,1.46832 0.63995,1.00824 0.92993,1.73508 1.12207,2.21716 0.0698,0.17621 0.14929,0.37442 0.1897,0.43561 0.33282,0.48944 3.03827,0.0318 4.05743,-0.13461 2.28937,-0.38177 4.27039,-0.71213 5.08655,0.73172 0.5849,1.03271 0.15051,2.39825 -1.33008,4.1676 -0.4613,0.55063 -0.95197,0.96909 -1.38757,1.29703 0.36096,0.21536 0.68396,0.54572 0.81494,1.06454 v 0 c 0.30835,1.22849 -0.74762,2.45944 -3.13733,3.66348 -0.59344,0.30099 -1.39246,0.70236 -2.51202,0.89569 -0.52734,0.0906 -1.00214,0.11258 -1.40839,0.12482 -0.009,0.23492 -0.0637,0.48944 -0.20679,0.75128 -0.41974,0.77087 -1.29333,1.13794 -2.60992,1.04984 -1.44873,-0.0759 -2.64172,-0.35239 -3.69403,-0.59467 -0.91888,-0.21045 -1.71057,-0.3891 -2.33215,-0.3475 -1.15265,0.093 -2.04102,1.01559 -3.0835,2.21228 l -2.6026,3.04187 h -1.2e-4 z"
       fill="#f2f2f2"
       id="path10" />
    <path
       d="m 600.32214,208.99365 -4.75842,1.83472 -0.43744,-0.15347 c -2.02301,-0.71045 -3.85657,-0.86215 -5.45154,-0.45148 -0.2536,0.0652 -0.50378,0.14349 -0.75873,0.22299 -1.01019,0.31549 -2.26587,0.70801 -3.92151,0.43378 -0.92358,-0.155 -3.11005,-0.69739 -3.28485,-2.32889 -0.0516,-0.43805 0.0587,-0.80853 0.22229,-1.11075 -0.0661,-0.0206 -0.13257,-0.0424 -0.20435,-0.0653 -0.87384,-0.2933 -1.29486,-0.59653 -1.70044,-0.88867 -0.31183,-0.22437 -0.63324,-0.45633 -1.33252,-0.76883 -0.30664,-0.13715 -0.57074,-0.2374 -0.79285,-0.32211 -0.67218,-0.2576 -1.4859,-0.61096 -1.71924,-1.5491 -0.2146,-1.01135 0.47437,-1.75113 0.93024,-2.24133 0.81299,-0.87476 1.44244,-1.33963 1.86005,-1.64774 0.15271,-0.11215 0.32428,-0.23938 0.37323,-0.29395 0.38904,-0.44608 -0.73987,-2.94693 -1.15936,-3.89062 -0.94995,-2.11765 -1.77203,-3.95007 -0.5824,-5.10577 0.85059,-0.8277 2.28168,-0.75391 4.36865,0.22946 0.64966,0.30655 1.17883,0.67502 1.60657,1.01321 0.11676,-0.40378 0.35437,-0.80005 0.82306,-1.05829 v 0 c 1.11011,-0.60986 2.5686,0.0993 4.33948,2.10547 0.44165,0.49768 1.03259,1.16876 1.50354,2.2027 0.22131,0.48715 0.3631,0.9408 0.47797,1.33066 0.22943,-0.0513 0.48956,-0.0626 0.77917,0.009 0.85211,0.21045 1.42877,0.9624 1.67749,2.2583 0.29413,1.42062 0.32922,2.64474 0.36182,3.72409 0.0295,0.94226 0.0575,1.75336 0.25543,2.34406 0.38232,1.09134 1.50006,1.71661 2.92206,2.42148 l 3.60254,1.74591 -1.2e-4,3e-5 h 1.8e-4 z"
       fill="#f2f2f2"
       id="path12" />
    <path
       d="m 597.68842,194.06265 -0.56775,-5.06818 0.2594,-0.38422 c 1.20038,-1.77667 1.81213,-3.51175 1.81952,-5.15872 0.001,-0.26184 -0.011,-0.52371 -0.0232,-0.79044 -0.0489,-1.05719 -0.11011,-2.37134 0.57507,-3.90329 0.38422,-0.85406 1.46344,-2.83142 3.08594,-2.5867 0.43683,0.0612 0.76721,0.26184 1.01807,0.49677 0.0367,-0.0587 0.0747,-0.11746 0.11499,-0.18109 0.50531,-0.77087 0.90546,-1.10123 1.29089,-1.41937 0.29608,-0.24472 0.60199,-0.49677 1.08167,-1.0939 0.21045,-0.26184 0.37439,-0.49188 0.5127,-0.68521 0.41974,-0.58487 0.96783,-1.28235 1.93451,-1.27011 1.03271,0.0489 1.57355,0.90302 1.93207,1.46832 0.63995,1.00824 0.92993,1.73508 1.12207,2.21716 0.0698,0.17621 0.14929,0.37442 0.1897,0.43561 0.33282,0.48944 3.03827,0.0318 4.05743,-0.13461 2.28937,-0.38177 4.27039,-0.71213 5.08655,0.73172 0.5849,1.03271 0.15051,2.39825 -1.33008,4.1676 -0.4613,0.55063 -0.95197,0.96909 -1.38757,1.29703 0.36096,0.21536 0.68396,0.54572 0.81494,1.06454 v 0 c 0.30835,1.22849 -0.74762,2.45944 -3.13733,3.66348 -0.59344,0.30099 -1.39246,0.70236 -2.51202,0.89569 -0.52734,0.0906 -1.00214,0.11258 -1.40839,0.12482 -0.009,0.23492 -0.0637,0.48944 -0.20679,0.75128 -0.41974,0.77087 -1.29333,1.13794 -2.60992,1.04984 -1.44873,-0.0759 -2.64172,-0.35239 -3.69403,-0.59467 -0.91888,-0.21045 -1.71057,-0.3891 -2.33215,-0.3475 -1.15265,0.093 -2.04102,1.01559 -3.0835,2.21228 l -2.6026,3.04187 h -1.2e-4 z"
       fill="#f2f2f2"
       id="path14" />
    <path
       d="m 602.87408,292.4404 -1.06207,-0.66565 -0.25696,-1.22604 0.25696,1.22604 -1.23828,0.14194 c -0.0196,-0.11502 -0.0868,-0.37933 -0.18842,-0.79291 -0.55426,-2.26611 -2.24408,-9.16235 -3.65369,-20.02304 -0.98383,-7.58145 -1.54053,-15.37579 -1.65558,-23.17017 -0.11499,-7.80658 0.25452,-13.71661 0.55066,-18.46661 0.22394,-3.5827 0.49554,-6.99411 0.76233,-10.31744 0.70972,-8.87848 1.37903,-17.26505 0.88098,-26.54974 -0.11011,-2.07278 -0.34137,-6.38721 -2.862,-10.97818 -1.46222,-2.66257 -3.47626,-5.02655 -5.98706,-7.02347 l 1.56134,-1.96265 c 2.77142,2.20737 4.99963,4.8259 6.62335,7.78214 2.79474,5.09018 3.04675,9.79129 3.16791,12.05005 0.50653,9.44867 -0.17004,17.91602 -0.88715,26.88013 -0.26428,3.31107 -0.53595,6.70779 -0.75867,10.27582 -0.29364,4.70599 -0.65955,10.56458 -0.54572,18.27084 0.11261,7.70135 0.66321,15.40027 1.63348,22.88629 1.39246,10.72366 3.0578,17.51712 3.60474,19.74896 0.29126,1.1918 0.35242,1.44141 0.0538,1.91373 v -3e-5 z"
       fill="#f2f2f2"
       id="path16" />
    <path
       d="m 583.82501,178.57675 c -0.10278,0 -0.20679,-0.002 -0.31201,-0.01 -2.13397,-0.11502 -4.11011,-1.39246 -5.87451,-3.79562 -0.82715,-1.13062 -1.25055,-2.42029 -2.09485,-4.99231 -0.13092,-0.39645 -0.76721,-2.40805 -1.15387,-5.17584 -0.2533,-1.8085 -0.2215,-2.56467 0.13702,-3.23276 0.39764,-0.74396 1.04126,-1.26276 1.76569,-1.6127 -0.0318,-0.23984 -0.006,-0.487 0.0979,-0.73907 0.427,-1.04495 1.5625,-0.9079 2.17682,-0.84183 0.31079,0.0392 0.69867,0.0906 1.11719,0.0685 0.65826,-0.0318 1.0119,-0.2276 1.54785,-0.52127 0.5127,-0.28143 1.15021,-0.63138 2.09607,-0.82471 1.86481,-0.3891 3.42731,0.1395 3.94244,0.31323 2.71027,0.90302 4.04645,3.01007 5.59308,5.44992 0.30835,0.48944 1.36676,2.271 2.06543,4.71332 0.50415,1.76199 0.43317,2.5451 0.28143,3.12753 -0.30835,1.19669 -1.03638,1.8819 -2.88525,3.39429 -1.93085,1.58334 -2.8999,2.37625 -3.73199,2.85834 -1.93695,1.11838 -3.15326,1.82071 -4.76837,1.82071 v 6e-5 h -6e-5 z"
       fill="#f2f2f2"
       id="path18" />
  </g>
  <path
     d="M 342.12104,308.24962 H 136.05805 c -8.5293,0 -15.46875,-6.93945 -15.46875,-15.46875 v -104.8457 c 0,-8.5293 6.93945,-15.46875 15.46875,-15.46875 h 206.06299 c 8.5293,0 15.46826,6.93945 15.46826,15.46875 v 104.8457 c 0,8.5293 -6.93896,15.46875 -15.46826,15.46875 z M 136.05805,174.46642 c -7.42676,0 -13.46875,6.04199 -13.46875,13.46875 v 104.8457 c 0,7.42676 6.04199,13.46875 13.46875,13.46875 h 206.06299 c 7.42627,0 13.46826,-6.04199 13.46826,-13.46875 v -104.8457 c 0,-7.42676 -6.04199,-13.46875 -13.46826,-13.46875 z"
     fill="#3f3d56"
     id="path30" />
  <rect
     x="224.56685"
     y="172.5865"
     width="35.20599"
     height="135.54306"
     fill="#ff5b5b"
     id="rect32" />
  <rect
     x="121.58933"
     y="223.63521"
     width="235.00003"
     height="35.20599"
     fill="#ff5b5b"
     id="rect34" />
  <path
     d="m 232.21742,263.14247 c 0.96973,0.2493 1.9776,0.39789 3.0163,0.43405 l 40.10095,44.03241 18.48315,-37.84644 -44.48004,-16.68002 c 0.29785,-1.14011 0.4726,-2.32999 0.4726,-3.56342 0,-0.65485 -0.0602,-1.29416 -0.14679,-1.92526 l 44.15424,-16.55786 -18.48315,-37.84644 -38.52484,42.30182 c -0.35828,-0.0273 -0.71661,-0.0546 -1.08185,-0.0546 -1.21436,0 -2.38635,0.16998 -3.5105,0.45898 -8.10376,-25.92987 -32.57565,-36.54514 -32.57565,-36.54514 l -26.40448,32.56555 c 19.42267,-1.94226 39.30713,9.91888 48.47244,16.33118 -0.0376,0.41956 -0.0642,0.84244 -0.0642,1.27182 0,0.42938 0.0266,0.85223 0.0642,1.27182 -9.16528,6.41229 -29.04977,18.27341 -48.47244,16.33118 l 26.40448,32.56555 c 0,0 24.47189,-10.61526 32.57565,-36.54514 l -6e-5,-3e-5 z"
     isolation="isolate"
     opacity="0.2"
     id="path36" />
  <path
     d="m 276.78071,301.55431 c -0.79736,0 -1.56396,-0.33398 -2.10938,-0.93262 l -37.13184,-40.77246 c -0.30615,-0.33594 -0.75195,-0.54883 -1.25537,-0.59961 l -0.16016,-0.0166 c -0.90723,-0.10059 -1.73438,0.38965 -2.01855,1.19531 -7.3291,20.7793 -25.17236,31.35449 -30.46631,34.10059 -1.19287,0.62109 -2.67432,0.30859 -3.52344,-0.74121 l -21.94922,-27.07129 c -0.6958,-0.85742 -0.83643,-2.01367 -0.36768,-3.01758 0.4624,-0.98926 1.42383,-1.61328 2.50977,-1.62988 16.96875,-0.26172 33.6416,-9.94727 42.06982,-15.69727 0.50684,-0.34668 0.80957,-0.94434 0.80859,-1.59863 9.8e-4,-0.68359 -0.30127,-1.28125 -0.80859,-1.62695 -8.42676,-5.75 -25.09766,-15.43555 -42.07031,-15.69727 -1.08594,-0.0166 -2.04736,-0.6416 -2.50928,-1.63086 -0.46875,-1.00391 -0.32812,-2.16016 0.36768,-3.01758 l 21.94971,-27.07129 c 0.8501,-1.04688 2.33154,-1.35938 3.52246,-0.74219 5.29346,2.74707 23.13281,13.32129 30.46338,34.09375 0.28418,0.80469 1.0957,1.30664 1.9126,1.20801 0.88916,-0.1123 1.7749,-0.1377 2.63086,-0.0742 l 36.02588,-39.55859 c 0.6377,-0.7002 1.57861,-1.03906 2.51514,-0.90332 0.9375,0.13477 1.74512,0.72266 2.16016,1.57324 l 15.82471,32.40234 c 0.35254,0.72168 0.38379,1.56348 0.0869,2.30957 -0.29688,0.74512 -0.89844,1.33398 -1.6499,1.61523 l -40.06201,15.02344 c -0.73682,0.27637 -1.21826,0.99707 -1.19824,1.79199 l 0.003,0.29004 c 0,0.62305 -0.0435,1.25684 -0.12891,1.88379 -0.10986,0.80664 0.39307,1.60938 1.1958,1.91113 l 40.19043,15.07129 c 0.75146,0.28223 1.35303,0.87109 1.6499,1.61719 0.29639,0.74609 0.26465,1.58691 -0.0874,2.30859 l -15.82471,32.40234 c -0.41504,0.85059 -1.22266,1.43848 -2.16016,1.57227 -0.13525,0.0195 -0.271,0.0293 -0.40576,0.0293 z"
     fill="#ff5b5b"
     id="path38" />
  <g
     id="g74"
     transform="translate(-293.53478,-120.14198)">
    <path
       d="m 383.68994,171.68843 h -32.2265 v -10.61121 c 0,-17.78629 14.44019,-32.22649 32.22647,-32.22649 h 3e-5 v 42.83768 0 z"
       fill="#2f2e41"
       id="path40" />
    <polygon
       points="362.84988,147.84016 376.54688,151.87964 382.0878,176.80176 349.61862,171.41035 "
       fill="#ffb6b6"
       id="polygon42" />
    <polygon
       points="362.84988,147.84016 376.54688,151.87964 382.0878,176.80176 349.61862,171.41035 "
       isolation="isolate"
       opacity="0.1"
       id="polygon44" />
    <rect
       x="345.41736"
       y="205.11847"
       width="31.12952"
       height="46.071671"
       fill="#ffb6b6"
       id="rect46" />
    <path
       d="m 396.78104,288.85684 -6.84848,36.73282 c 0,0 4.35812,25.52618 -8.71625,51.67499 l -8.71625,26.77139 -13.0744,-1.86777 c 0,0 8.09366,-19.92288 8.09366,-28.63916 0,-8.71628 1.86777,-42.33612 1.86777,-42.33612 l -0.9339,-38.36282 28.32785,-3.9733 z"
       fill="#ffb6b6"
       id="path48" />
    <path
       d="m 357.55786,401.54565 c 0,0 14.94217,-5.6033 16.18735,2.49036 l -0.62259,3.73553 c 0,0 5.6033,16.80994 -2.49036,18.05511 -8.09366,1.24517 -15.56476,3.11295 -16.18735,-0.62259 -0.62259,-3.73554 -0.61279,-8.39853 0.93878,-11.67035 1.55157,-3.27182 2.17416,-11.98807 2.17416,-11.98807 z"
       fill="#2f2e41"
       id="path50" />
    <path
       d="m 349.65063,283.15878 -3.63742,37.18832 c 0,0 -11.28528,23.30713 -5.9989,52.06046 l 0.92703,28.13931 13.07803,1.84204 c 0,0 -2.23364,-21.38785 0.19046,-29.76025 2.42407,-8.37241 9.97998,-41.18539 9.97998,-41.18539 l 11.5661,-36.58966 -26.10529,-11.69479 v -3e-5 z"
       fill="#ffb6b6"
       id="path52" />
    <path
       d="m 355.9866,402.3103 c 0,0 -12.79434,-9.53781 -16.24133,-2.10974 l -0.44086,3.76132 c 0,0 -9.87988,18.59116 -2.45181,22.03812 7.42807,3.44696 13.90759,3.31613 15.54449,-0.0989 1.6369,-3.41501 2.92432,-7.89679 2.34387,-11.47104 -0.58045,-3.57425 1.24561,-12.11981 1.24561,-12.11981 z"
       fill="#2f2e41"
       id="path54" />
    <path
       d="m 388.68738,229.71077 26.77139,56.65569 c 0,0 -53.85403,27.08267 -85.60614,27.08267 l 15.76575,-83.73837 h 43.06903 l -3e-5,2e-5 z"
       fill="#2f2e41"
       id="path56" />
    <path
       d="m 364.71765,163.40492 15.56476,2.49036 -1.24518,39.22318 17.43253,34.86505 -22.41324,11.20662 c 0,0 -17.43253,-32.99728 -20.54547,-53.54276 -3.11294,-20.54548 -1.24518,-35.48764 -1.24518,-35.48764 l 12.45181,1.24518 -3e-5,2e-5 z"
       fill="#e6e6e6"
       id="path58" />
    <path
       d="m 352.88846,164.6501 -15.56476,2.49036 1.24518,39.22318 -3.73553,36.11023 8.71625,9.96144 c 0,0 17.43253,-32.99728 20.54547,-53.54276 3.11294,-20.54548 1.24518,-35.48764 1.24518,-35.48764 l -12.45181,1.24518 3e-5,2e-5 z"
       fill="#e6e6e6"
       id="path60" />
    <path
       d="m 376.85818,166.82916 3.42426,-0.93388 c 0,0 12.1405,-1.55647 14.00827,3.42426 1.86777,4.98071 1.24518,34.24246 1.24518,34.24246 0,0 3.21255,35.91414 -9.28903,36.32347 -12.50158,0.40933 -10.01126,-29.47499 -10.01126,-29.47499 l 0.62259,-43.58131 z"
       fill="#e6e6e6"
       id="path62" />
    <circle
       cx="371.11374"
       cy="142.60597"
       r="16.113251"
       fill="#ffb6b6"
       id="circle64" />
    <path
       d="m 366.07315,164.78209 c 3.45673,-0.877 7.3757,2.81493 8.75443,8.24841 0.58051,2.16293 0.63461,4.4334 0.15778,6.62146 l 1.48532,6.17636 0.10928,-0.006 11.71606,27.61118 c 2.72412,6.41994 2.43628,13.79018 -1.03827,19.83698 -2.06693,3.59711 -4.78021,6.01532 -7.96603,3.54678 -5.28632,-4.0961 -8.7392,-27.54909 -10.31573,-41.02138 l -3.64523,-13.69443 c -1.4632,-1.69633 -2.49875,-3.71846 -3.01999,-5.89713 -1.37897,-5.43138 0.30573,-10.54544 3.76242,-11.42249 h -3e-5 z"
       fill="#ffb6b6"
       id="path66" />
    <path
       d="m 351.02069,166.82916 -3.42426,-0.93388 c 0,0 -12.1405,-1.55647 -14.00827,3.42426 -1.86777,4.98073 -1.24518,34.24246 -1.24518,34.24246 0,0 -3.21255,35.91414 9.28903,36.32347 12.50162,0.40935 10.01126,-29.47499 10.01126,-29.47499 l -0.62259,-43.58131 z"
       fill="#e6e6e6"
       id="path68" />
    <path
       d="m 361.80569,164.78209 c -3.45673,-0.877 -7.3757,2.81493 -8.75443,8.24841 -0.58051,2.16293 -0.63461,4.4334 -0.15778,6.62146 l -1.48532,6.17636 -0.10928,-0.006 -11.71606,27.61118 c -2.72412,6.41994 -2.43628,13.79018 1.03827,19.83698 2.06693,3.59711 4.78021,6.01532 7.96603,3.54678 5.28632,-4.0961 8.7392,-27.54909 10.31573,-41.02138 l 3.64523,-13.69443 c 1.4632,-1.69633 2.49875,-3.71846 3.01999,-5.89713 1.37897,-5.43138 -0.30573,-10.54544 -3.76242,-11.42249 h 3e-5 z"
       fill="#ffb6b6"
       id="path70" />
    <path
       d="m 340.26523,155.64177 c 0.81961,-2.49213 2.43759,-4.67393 3.1615,-7.19553 0.96118,-3.34805 3.0076,4.07948 3.20724,0.60191 0.37949,-6.60983 10.46753,-23.61252 16.22668,-26.87849 5.75912,-3.266 9.06686,-2.28128 14.93423,0.78601 0,0 2.84811,0.18113 6.39389,1.93169 3.54578,1.75056 6.73743,4.55415 8.11655,8.26021 1.09314,2.93758 0.97214,6.16356 1.3374,9.27654 1.01755,8.67264 5.87906,16.92076 4.8356,25.5903 -0.32553,2.70483 -1.35361,5.50188 -3.56519,7.09282 -2.21158,1.59093 -5.78452,1.41786 -7.24026,-0.88496 -0.49677,-0.78583 -0.70682,-1.71812 -1.13254,-2.54462 -0.42572,-0.82648 -1.19495,-1.59695 -2.12427,-1.57123 -1.39685,0.0387 -2.10785,1.91298 -1.55704,3.19724 0.55081,1.28426 1.84521,2.05965 3.06055,2.74934 -2.8945,1.30214 -6.48508,0.89667 -9.01627,-1.01823 -2.53116,-1.9149 -3.89801,-5.25984 -3.43222,-8.39935 0.65637,-4.42419 7.10159,-3.50848 7.86084,-7.91618 0.5527,-3.20865 2.49374,-8.57751 1.96503,-11.79019 -0.52869,-3.21269 -3.0679,0.67728 -0.39301,-1.17902 -2.94284,1.41867 -9.23755,-8.28658 -12.31836,-9.37363 -3.08078,-1.08705 -5.69293,-3.44087 -7.09381,-6.39223 -3.26764,4.7368 -6.142,3.45045 -7.31226,9.08475 -1.17026,5.63428 -0.0882,18.43474 4.73044,21.58038 -1.92844,1.31575 -3.46573,3.19733 -4.37054,5.34937 -0.5126,1.21915 -0.84491,2.55313 -1.69574,3.56567 -1.62491,1.93387 -4.62527,2.0515 -7.01675,1.23839 -2.96533,-1.00822 -5.50067,-3.22269 -6.89859,-6.02547 -1.39792,-2.80278 -1.6416,-6.16022 -0.66309,-9.1355 l -3e-5,2e-5 z"
       fill="#2f2e41"
       id="path72" />
  </g>
</svg>
